<?xml version="1.0" encoding="UTF-8"?>
<svg id="Capa_1" data-name="Capa 1" xmlns="http://www.w3.org/2000/svg" viewBox="0 0 29.53 32">
  <defs>
    <style>
      .cls-1 {
        fill: #c20e31;
      }

      .cls-1, .cls-2 {
        stroke-width: 0px;
      }

      .cls-2 {
        fill: #fff;
      }
    </style>
  </defs>
  <rect class="cls-2" x="0" y="0" width="29.53" height="32" rx="2.88" ry="2.88" transform="translate(29.53 32) rotate(-180)"/>
  <path class="cls-1" d="M5.39,17.52l.05.61c0,1.93.06,6.57.67,7.58.9,1.5,2.05,2.19,8.57,5.41l.09.05c6.58-3.25,7.85-3.96,8.75-5.47.6-1.01.67-5.66.67-7.58,0-.04,0-.07-.01-.11,0-.55.03-.01.01-.58l5.35-2.85v15.21c0,1.22-.99,2.21-2.21,2.21H2.21C.99,32,0,31.01,0,29.79v-14.92s5.39,2.64,5.39,2.64Z"/>
  <path class="cls-1" d="M8.36,19.06l6.23,3.49c.11.06.25.06.36,0l6.3-3.49c.25-.14.55.04.55.32,0,1.44-.05,4.91-.5,5.66-.67,1.12-1.62,1.65-6.54,4.08l-.06-.04c-4.87-2.41-5.73-2.92-6.4-4.04-.45-.75-.5-4.22-.5-5.66,0-.28.3-.46.55-.32Z"/>
  <path class="cls-2" d="M3.87,16.76l-2.29-1.15c-.21-.1-.45.05-.45.28v2.63c0,.08.03.15.08.21.23.26.92,1,1.38,1.01s1.15-.7,1.38-.96c.05-.06.08-.13.08-.21v-1.54c0-.12-.07-.23-.17-.28Z"/>
  <path class="cls-1" d="M28.62,11.42l-13.55-7.22c-.16-.09-.35-.09-.51,0L.96,11.42c-.39.21-.39.76,0,.97l13.6,7.22c.16.09.35.09.51,0l13.55-7.22c.39-.21.39-.76,0-.97Z"/>
</svg>